<svg xmlns="http://www.w3.org/2000/svg" width="105.217" height="63.402" viewBox="0 0 105.217 63.402">
  <g id="Logo" transform="translate(-64.888 -33.01)">
    <rect id="Rectangle_1" data-name="Rectangle 1" width="2.793" height="12.922" transform="translate(64.888 73)" fill="#fff"/>
    <path id="Tracé_1" data-name="Tracé 1" d="M13.6,98.045H10.823V84.716L19.732,92.6v-7.46h2.793V98.451L13.6,90.691Z" transform="translate(59.122 -12.123)" fill="#fff"/>
    <path id="Tracé_2" data-name="Tracé 2" d="M44.812,96.025c1.538,0,2.386-.707,2.386-1.432,0-1.025-1.378-1.291-2.881-1.555-1.626-.265-5.126-.866-5.126-3.96,0-3.076,2.846-3.907,5.126-3.907A7.9,7.9,0,0,1,49.426,86.9L47.87,89.025A6.488,6.488,0,0,0,44.211,87.7c-.813,0-2.227.248-2.227,1.273,0,.919,1.4,1.131,2.563,1.379,2.1.442,5.444.707,5.444,4.172,0,2.687-2.085,4.013-5.143,4.013a8.647,8.647,0,0,1-5.834-2.015L40.5,94.381a7.867,7.867,0,0,0,4.314,1.644" transform="translate(44.103 -12.365)" fill="#fff"/>
    <rect id="Rectangle_2" data-name="Rectangle 2" width="2.793" height="12.922" transform="translate(95.636 73)" fill="#fff"/>
    <path id="Tracé_3" data-name="Tracé 3" d="M88.829,92.1c0,.23-.017.477-.036.742-.282,3.305-3.27,5.656-6.752,5.656a6.7,6.7,0,1,1,0-13.4,7.062,7.062,0,0,1,5.851,3.111l-2.4,1.4a4.429,4.429,0,0,0-3.446-1.962,4.163,4.163,0,1,0,0,8.325,4,4,0,0,0,3.765-2.457H80.981V91.052h7.813c.018.353.036.76.036,1.043" transform="translate(24.891 -12.325)" fill="#fff"/>
    <path id="Tracé_4" data-name="Tracé 4" d="M118.931,98.508h-2.775v-5.02h-6.063v5.02h-2.775V85.586h2.775v5.48h6.063v-5.48h2.775Z" transform="translate(7.714 -12.586)" fill="#fff"/>
    <path id="Tracé_5" data-name="Tracé 5" d="M140.874,88.008v10.5h-2.811v-10.5H134.3V85.587h10.323v2.422Z" transform="translate(-6.66 -12.587)" fill="#fff"/>
    <path id="Tracé_6" data-name="Tracé 6" d="M171.66,84.716l7.089,13.329h-3.059l-1.025-1.98h-6.028l-.99,1.98h-3.075Zm1.662,8.962L171.66,90.3l-1.644,3.376Z" transform="translate(-22.788 -12.123)" fill="#fff"/>
    <path id="Tracé_7" data-name="Tracé 7" d="M209.746,98.045h-2.811v-6.17l-3.959,4.6-3.96-4.6v6.17h-2.81V84.716l6.77,7.637,6.77-7.637Z" transform="translate(-39.642 -12.123)" fill="#fff"/>
    <g id="Groupe_1" data-name="Groupe 1" transform="translate(64.888 91.613)">
      <path id="Tracé_8" data-name="Tracé 8" d="M0,126.115v-.352H1.971v.352h-.8v3.246H.8v-3.246Z" transform="translate(0 -125.603)" fill="#fff"/>
      <path id="Tracé_9" data-name="Tracé 9" d="M7.7,127.689v2.662H7.367v-.458a1.466,1.466,0,0,1-.484.394,1.35,1.35,0,0,1-1.55-.278,1.372,1.372,0,0,1-.4-1,1.349,1.349,0,0,1,.4-.983,1.316,1.316,0,0,1,.971-.409,1.257,1.257,0,0,1,.593.14,1.355,1.355,0,0,1,.466.418v-.49Zm-1.369.262a1.033,1.033,0,0,0-.913.535,1.081,1.081,0,0,0,0,1.075,1.044,1.044,0,0,0,.387.4,1.011,1.011,0,0,0,.521.143,1.066,1.066,0,0,0,.533-.142.979.979,0,0,0,.387-.384,1.09,1.09,0,0,0,.136-.545,1.061,1.061,0,0,0-.3-.772,1.008,1.008,0,0,0-.749-.31" transform="translate(-2.628 -126.594)" fill="#fff"/>
      <path id="Tracé_10" data-name="Tracé 10" d="M12.772,127.69h.35v.389a1.225,1.225,0,0,1,.33-.344.65.65,0,0,1,.361-.114.621.621,0,0,1,.3.091L13.94,128a.477.477,0,0,0-.181-.047.5.5,0,0,0-.33.141.9.9,0,0,0-.243.437,4.194,4.194,0,0,0-.063.92v.9h-.35Z" transform="translate(-6.804 -126.594)" fill="#fff"/>
      <path id="Tracé_11" data-name="Tracé 11" d="M18.961,127.689H19.3v2.121a2.5,2.5,0,0,1-.1.819,1.064,1.064,0,0,1-.467.565,1.537,1.537,0,0,1-.8.2,1.845,1.845,0,0,1-.615-.1,1.23,1.23,0,0,1-.444-.26,1.535,1.535,0,0,1-.315-.477h.371a.977.977,0,0,0,.392.391,1.256,1.256,0,0,0,.595.128,1.239,1.239,0,0,0,.592-.13.808.808,0,0,0,.344-.328,1.468,1.468,0,0,0,.1-.638v-.137a1.3,1.3,0,0,1-.472.375,1.4,1.4,0,0,1-1.284-.051,1.3,1.3,0,0,1-.5-.491,1.343,1.343,0,0,1-.176-.678,1.385,1.385,0,0,1,1.376-1.38,1.274,1.274,0,0,1,.557.124,1.53,1.53,0,0,1,.5.407Zm-1.011.262a1.079,1.079,0,0,0-.54.141,1.021,1.021,0,0,0-.392.389,1.065,1.065,0,0,0-.142.537.966.966,0,0,0,.293.724,1.044,1.044,0,0,0,.76.286,1.033,1.033,0,0,0,.76-.284,1,1,0,0,0,.288-.746,1.081,1.081,0,0,0-.132-.537.963.963,0,0,0-.375-.373,1.041,1.041,0,0,0-.521-.137" transform="translate(-8.806 -126.594)" fill="#fff"/>
      <path id="Tracé_12" data-name="Tracé 12" d="M26.664,129.469l.289.152a1.561,1.561,0,0,1-.328.45,1.313,1.313,0,0,1-.419.261,1.465,1.465,0,0,1-.527.089,1.274,1.274,0,0,1-1.019-.427,1.44,1.44,0,0,1-.367-.965,1.422,1.422,0,0,1,.311-.9,1.272,1.272,0,0,1,1.056-.5,1.314,1.314,0,0,1,1.087.516,1.445,1.445,0,0,1,.294.91h-2.4a1.083,1.083,0,0,0,.3.76.947.947,0,0,0,.708.3,1.135,1.135,0,0,0,.4-.071,1.042,1.042,0,0,0,.327-.187,1.6,1.6,0,0,0,.292-.378m0-.717a1.13,1.13,0,0,0-.2-.438.951.951,0,0,0-.346-.264,1.069,1.069,0,0,0-.453-.1.978.978,0,0,0-.674.252,1.145,1.145,0,0,0-.311.55Z" transform="translate(-12.942 -126.594)" fill="#fff"/>
      <path id="Tracé_13" data-name="Tracé 13" d="M32.182,125.653h.342v.988h.543v.3h-.543V129.3h-.342v-2.366h-.467v-.3h.467Z" transform="translate(-16.896 -125.545)" fill="#fff"/>
      <path id="Tracé_14" data-name="Tracé 14" d="M36.18,125.422a.283.283,0,0,1,0,.565.268.268,0,0,1-.2-.083.281.281,0,0,1,0-.4.268.268,0,0,1,.2-.084m-.17,1.1h.342v2.661H36.01Z" transform="translate(-19.126 -125.422)" fill="#fff"/>
      <path id="Tracé_15" data-name="Tracé 15" d="M38.928,127.69h.343v.477a1.411,1.411,0,0,1,.455-.409,1.114,1.114,0,0,1,.542-.136.943.943,0,0,1,.529.151.9.9,0,0,1,.341.408,2.152,2.152,0,0,1,.111.8v1.37h-.343v-1.27a3.1,3.1,0,0,0-.038-.614.673.673,0,0,0-.228-.4.69.69,0,0,0-.44-.133.845.845,0,0,0-.556.206.964.964,0,0,0-.325.509,3.582,3.582,0,0,0-.048.724v.976h-.343Z" transform="translate(-20.739 -126.594)" fill="#fff"/>
      <path id="Tracé_16" data-name="Tracé 16" d="M48.141,127.689h.342v2.121a2.5,2.5,0,0,1-.1.819,1.064,1.064,0,0,1-.467.565,1.537,1.537,0,0,1-.8.2,1.845,1.845,0,0,1-.615-.1,1.226,1.226,0,0,1-.444-.26,1.535,1.535,0,0,1-.316-.477h.372a.977.977,0,0,0,.392.391,1.254,1.254,0,0,0,.595.128,1.239,1.239,0,0,0,.592-.13.8.8,0,0,0,.343-.328,1.46,1.46,0,0,0,.1-.638v-.137a1.3,1.3,0,0,1-.472.375,1.4,1.4,0,0,1-1.284-.051,1.3,1.3,0,0,1-.5-.491,1.343,1.343,0,0,1-.176-.678,1.385,1.385,0,0,1,1.376-1.38,1.275,1.275,0,0,1,.557.124,1.53,1.53,0,0,1,.5.407Zm-1.011.262a1.081,1.081,0,0,0-.541.141,1.023,1.023,0,0,0-.391.389,1.065,1.065,0,0,0-.142.537.966.966,0,0,0,.293.724,1.155,1.155,0,0,0,1.52,0,1,1,0,0,0,.288-.746,1.086,1.086,0,0,0-.132-.537.963.963,0,0,0-.375-.373,1.042,1.042,0,0,0-.521-.137" transform="translate(-24.352 -126.594)" fill="#fff"/>
      <path id="Tracé_17" data-name="Tracé 17" d="M58.308,127.981l-.221.228a.791.791,0,0,0-.537-.267.408.408,0,0,0-.286.11.34.34,0,0,0-.119.257.379.379,0,0,0,.1.247,1.365,1.365,0,0,0,.412.282,1.526,1.526,0,0,1,.52.381.7.7,0,0,1,.135.418.753.753,0,0,1-.23.556.788.788,0,0,1-.576.228,1.01,1.01,0,0,1-.44-.1.95.95,0,0,1-.346-.277l.215-.244a.748.748,0,0,0,.556.3.5.5,0,0,0,.351-.132.409.409,0,0,0,.144-.31.4.4,0,0,0-.1-.262,1.539,1.539,0,0,0-.432-.284,1.382,1.382,0,0,1-.49-.367.692.692,0,0,1-.13-.414.671.671,0,0,1,.207-.5.722.722,0,0,1,.523-.2,1.085,1.085,0,0,1,.74.36" transform="translate(-30.217 -126.594)" fill="#fff"/>
      <path id="Tracé_18" data-name="Tracé 18" d="M62.061,125.653H62.4v.988h.543v.3H62.4V129.3h-.342v-2.366h-.467v-.3h.467Z" transform="translate(-32.814 -125.545)" fill="#fff"/>
      <path id="Tracé_19" data-name="Tracé 19" d="M66.03,127.768h.342v1.243a2.673,2.673,0,0,0,.049.626.7.7,0,0,0,.281.386.849.849,0,0,0,.494.142.837.837,0,0,0,.486-.138.71.71,0,0,0,.275-.363,2.554,2.554,0,0,0,.051-.653v-1.243h.35v1.306a2.07,2.07,0,0,1-.128.829.982.982,0,0,1-.386.436,1.222,1.222,0,0,1-.647.158,1.236,1.236,0,0,1-.649-.158.974.974,0,0,1-.389-.44,2.157,2.157,0,0,1-.128-.85Z" transform="translate(-35.178 -126.672)" fill="#fff"/>
      <path id="Tracé_20" data-name="Tracé 20" d="M75.7,125.569v3.689h-.338V128.8a1.465,1.465,0,0,1-.483.394,1.35,1.35,0,0,1-1.55-.278,1.372,1.372,0,0,1-.4-1,1.348,1.348,0,0,1,.4-.983,1.314,1.314,0,0,1,.97-.409,1.26,1.26,0,0,1,.594.14,1.345,1.345,0,0,1,.465.418v-1.517Zm-1.368,1.289a1.036,1.036,0,0,0-.913.535,1.081,1.081,0,0,0,0,1.075,1.052,1.052,0,0,0,.388.4,1.01,1.01,0,0,0,.521.143,1.067,1.067,0,0,0,.533-.142.982.982,0,0,0,.387-.384,1.09,1.09,0,0,0,.136-.545,1.059,1.059,0,0,0-.3-.772,1.007,1.007,0,0,0-.749-.31" transform="translate(-38.855 -125.5)" fill="#fff"/>
      <path id="Tracé_21" data-name="Tracé 21" d="M80.994,125.422a.283.283,0,0,1,0,.565.267.267,0,0,1-.2-.083.281.281,0,0,1,0-.4.268.268,0,0,1,.2-.084m-.17,1.1h.342v2.661h-.342Z" transform="translate(-43.001 -125.422)" fill="#fff"/>
      <path id="Tracé_22" data-name="Tracé 22" d="M85.834,129.469l.289.152a1.561,1.561,0,0,1-.328.45,1.316,1.316,0,0,1-.418.261,1.468,1.468,0,0,1-.527.089,1.273,1.273,0,0,1-1.019-.427,1.44,1.44,0,0,1-.367-.965,1.422,1.422,0,0,1,.311-.9,1.272,1.272,0,0,1,1.056-.5,1.314,1.314,0,0,1,1.087.516,1.443,1.443,0,0,1,.294.91h-2.4a1.084,1.084,0,0,0,.3.76.946.946,0,0,0,.708.3,1.139,1.139,0,0,0,.4-.071,1.039,1.039,0,0,0,.327-.187,1.582,1.582,0,0,0,.292-.378m0-.717a1.123,1.123,0,0,0-.2-.438.949.949,0,0,0-.346-.264,1.072,1.072,0,0,0-.454-.1.976.976,0,0,0-.673.252,1.142,1.142,0,0,0-.311.55Z" transform="translate(-44.466 -126.594)" fill="#fff"/>
      <path id="Tracé_23" data-name="Tracé 23" d="M92.3,127.981l-.221.228a.791.791,0,0,0-.537-.267.407.407,0,0,0-.285.11.339.339,0,0,0-.119.257.378.378,0,0,0,.1.247,1.355,1.355,0,0,0,.411.282,1.521,1.521,0,0,1,.52.381.693.693,0,0,1,.135.418.754.754,0,0,1-.23.556.788.788,0,0,1-.576.228,1.012,1.012,0,0,1-.441-.1.945.945,0,0,1-.346-.277l.215-.244a.749.749,0,0,0,.556.3.5.5,0,0,0,.351-.132.407.407,0,0,0,.144-.31.4.4,0,0,0-.1-.262,1.535,1.535,0,0,0-.431-.284,1.384,1.384,0,0,1-.491-.367.692.692,0,0,1-.129-.414.672.672,0,0,1,.207-.5.723.723,0,0,1,.523-.2,1.084,1.084,0,0,1,.74.36" transform="translate(-48.325 -126.594)" fill="#fff"/>
      <path id="Tracé_24" data-name="Tracé 24" d="M102.291,128.178l.243.258a5.591,5.591,0,0,1-.445.359q.147.135.384.371c.124.124.23.237.32.342h-.5l-.478-.492a3.1,3.1,0,0,1-.731.472,1.618,1.618,0,0,1-.595.11.933.933,0,0,1-.668-.238.787.787,0,0,1-.252-.6,1,1,0,0,1,.17-.539,3.152,3.152,0,0,1,.693-.684,3.213,3.213,0,0,1-.379-.527.718.718,0,0,1-.085-.324.557.557,0,0,1,.208-.445.885.885,0,0,1,.6-.206.926.926,0,0,1,.411.091.671.671,0,0,1,.284.243.589.589,0,0,1,.1.324.733.733,0,0,1-.127.385,2.594,2.594,0,0,1-.5.522l.546.572.357.362a5.5,5.5,0,0,0,.454-.362m-1.622-.365a2.93,2.93,0,0,0-.6.549.681.681,0,0,0-.143.378.479.479,0,0,0,.174.364.61.61,0,0,0,.427.158.948.948,0,0,0,.375-.078,3.045,3.045,0,0,0,.663-.424l-.568-.585q-.147-.154-.328-.362m.044-.476a1.8,1.8,0,0,0,.394-.4.461.461,0,0,0,.093-.247.264.264,0,0,0-.122-.215.526.526,0,0,0-.322-.091.5.5,0,0,0-.312.093.273.273,0,0,0-.12.22.359.359,0,0,0,.05.184,2.849,2.849,0,0,0,.339.455" transform="translate(-53.045 -125.751)" fill="#fff"/>
      <path id="Tracé_25" data-name="Tracé 25" d="M111.374,129.361l.515-3.6h.058l1.463,2.953,1.448-2.953h.058l.517,3.6h-.352l-.356-2.573-1.272,2.573h-.092l-1.287-2.593-.354,2.593Z" transform="translate(-59.335 -125.604)" fill="#fff"/>
      <path id="Tracé_26" data-name="Tracé 26" d="M124.509,127.689v2.662h-.338v-.458a1.466,1.466,0,0,1-.484.394,1.35,1.35,0,0,1-1.55-.278,1.373,1.373,0,0,1-.4-1,1.348,1.348,0,0,1,.4-.983,1.316,1.316,0,0,1,.971-.409,1.257,1.257,0,0,1,.593.14,1.351,1.351,0,0,1,.466.418v-.49Zm-1.369.262a1.033,1.033,0,0,0-.528.141,1.022,1.022,0,0,0-.384.394,1.079,1.079,0,0,0,0,1.075,1.048,1.048,0,0,0,.387.4,1.011,1.011,0,0,0,.521.143,1.066,1.066,0,0,0,.533-.142.98.98,0,0,0,.387-.384,1.09,1.09,0,0,0,.136-.545,1.059,1.059,0,0,0-.3-.772,1.007,1.007,0,0,0-.749-.31" transform="translate(-64.856 -126.594)" fill="#fff"/>
      <path id="Tracé_27" data-name="Tracé 27" d="M129.575,127.69h.35v.389a1.23,1.23,0,0,1,.33-.344.652.652,0,0,1,.362-.114.621.621,0,0,1,.3.091l-.178.289a.477.477,0,0,0-.181-.047.5.5,0,0,0-.33.141.9.9,0,0,0-.243.437,4.2,4.2,0,0,0-.063.92v.9h-.35Z" transform="translate(-69.032 -126.594)" fill="#fff"/>
      <path id="Tracé_28" data-name="Tracé 28" d="M133.608,125.569h.342v2.1l1.234-1.075h.5l-1.463,1.27,1.549,1.392h-.482l-1.341-1.2v1.2h-.342Z" transform="translate(-71.18 -125.5)" fill="#fff"/>
      <path id="Tracé_29" data-name="Tracé 29" d="M141.624,129.469l.289.152a1.561,1.561,0,0,1-.328.45,1.313,1.313,0,0,1-.419.261,1.466,1.466,0,0,1-.527.089,1.273,1.273,0,0,1-1.019-.427,1.439,1.439,0,0,1-.367-.965,1.422,1.422,0,0,1,.311-.9,1.272,1.272,0,0,1,1.055-.5,1.314,1.314,0,0,1,1.087.516,1.445,1.445,0,0,1,.294.91h-2.4a1.084,1.084,0,0,0,.3.76.947.947,0,0,0,.708.3,1.136,1.136,0,0,0,.4-.071,1.042,1.042,0,0,0,.327-.187,1.6,1.6,0,0,0,.292-.378m0-.717a1.13,1.13,0,0,0-.2-.438.951.951,0,0,0-.346-.264,1.069,1.069,0,0,0-.453-.1.978.978,0,0,0-.674.252,1.144,1.144,0,0,0-.311.55Z" transform="translate(-74.188 -126.594)" fill="#fff"/>
      <path id="Tracé_30" data-name="Tracé 30" d="M147.142,125.653h.342v.988h.543v.3h-.543V129.3h-.342v-2.366h-.467v-.3h.467Z" transform="translate(-78.142 -125.545)" fill="#fff"/>
      <path id="Tracé_31" data-name="Tracé 31" d="M151.14,125.422a.283.283,0,0,1,0,.565.268.268,0,0,1-.2-.083.281.281,0,0,1,0-.4.268.268,0,0,1,.2-.084m-.17,1.1h.342v2.661h-.342Z" transform="translate(-80.371 -125.422)" fill="#fff"/>
      <path id="Tracé_32" data-name="Tracé 32" d="M153.888,127.69h.343v.477a1.411,1.411,0,0,1,.455-.409,1.114,1.114,0,0,1,.542-.136.943.943,0,0,1,.529.151.9.9,0,0,1,.341.408,2.152,2.152,0,0,1,.111.8v1.37h-.343v-1.27a3.1,3.1,0,0,0-.038-.614.673.673,0,0,0-.228-.4.69.69,0,0,0-.44-.133.845.845,0,0,0-.557.206.964.964,0,0,0-.325.509,3.582,3.582,0,0,0-.048.724v.976h-.343Z" transform="translate(-81.985 -126.594)" fill="#fff"/>
      <path id="Tracé_33" data-name="Tracé 33" d="M163.1,127.689h.343v2.121a2.5,2.5,0,0,1-.1.819,1.065,1.065,0,0,1-.467.565,1.538,1.538,0,0,1-.8.2,1.844,1.844,0,0,1-.615-.1,1.226,1.226,0,0,1-.444-.26,1.535,1.535,0,0,1-.316-.477h.372a.976.976,0,0,0,.392.391,1.254,1.254,0,0,0,.595.128,1.239,1.239,0,0,0,.592-.13.8.8,0,0,0,.343-.328,1.46,1.46,0,0,0,.1-.638v-.137a1.3,1.3,0,0,1-.472.375,1.4,1.4,0,0,1-1.284-.051,1.3,1.3,0,0,1-.5-.491,1.343,1.343,0,0,1-.176-.678,1.385,1.385,0,0,1,1.376-1.38,1.275,1.275,0,0,1,.557.124,1.53,1.53,0,0,1,.5.407Zm-1.011.262a1.081,1.081,0,0,0-.541.141,1.023,1.023,0,0,0-.391.389,1.065,1.065,0,0,0-.142.537.966.966,0,0,0,.293.724,1.155,1.155,0,0,0,1.52,0,1,1,0,0,0,.288-.746,1.086,1.086,0,0,0-.132-.537.963.963,0,0,0-.375-.373,1.042,1.042,0,0,0-.521-.137" transform="translate(-85.597 -126.594)" fill="#fff"/>
      <path id="Tracé_34" data-name="Tracé 34" d="M173.268,127.981l-.221.228a.791.791,0,0,0-.537-.267.408.408,0,0,0-.286.11.34.34,0,0,0-.119.257.379.379,0,0,0,.1.247,1.365,1.365,0,0,0,.412.282,1.525,1.525,0,0,1,.52.381.7.7,0,0,1,.135.418.752.752,0,0,1-.23.556.788.788,0,0,1-.576.228,1.01,1.01,0,0,1-.44-.1.95.95,0,0,1-.346-.277l.215-.244a.748.748,0,0,0,.556.3.5.5,0,0,0,.351-.132.409.409,0,0,0,.144-.31.4.4,0,0,0-.1-.262,1.54,1.54,0,0,0-.432-.284,1.382,1.382,0,0,1-.49-.367.692.692,0,0,1-.13-.414.671.671,0,0,1,.207-.5.722.722,0,0,1,.523-.2,1.085,1.085,0,0,1,.74.36" transform="translate(-91.462 -126.594)" fill="#fff"/>
      <path id="Tracé_35" data-name="Tracé 35" d="M177.021,125.653h.342v.988h.543v.3h-.543V129.3h-.342v-2.366h-.467v-.3h.467Z" transform="translate(-94.06 -125.545)" fill="#fff"/>
      <path id="Tracé_36" data-name="Tracé 36" d="M180.806,127.69h.35v.389a1.224,1.224,0,0,1,.33-.344.65.65,0,0,1,.361-.114.62.62,0,0,1,.3.091l-.178.289a.477.477,0,0,0-.181-.047.5.5,0,0,0-.33.141.894.894,0,0,0-.243.437,4.223,4.223,0,0,0-.063.92v.9h-.35Z" transform="translate(-96.325 -126.594)" fill="#fff"/>
      <path id="Tracé_37" data-name="Tracé 37" d="M187.361,127.689v2.662h-.338v-.458a1.466,1.466,0,0,1-.484.394,1.35,1.35,0,0,1-1.55-.278,1.374,1.374,0,0,1-.4-1,1.349,1.349,0,0,1,.4-.983,1.316,1.316,0,0,1,.971-.409,1.257,1.257,0,0,1,.593.14,1.351,1.351,0,0,1,.466.418v-.49Zm-1.369.262a1.033,1.033,0,0,0-.528.141,1.022,1.022,0,0,0-.384.394,1.079,1.079,0,0,0,0,1.075,1.044,1.044,0,0,0,.387.4,1.011,1.011,0,0,0,.521.143,1.066,1.066,0,0,0,.533-.142.98.98,0,0,0,.387-.384,1.09,1.09,0,0,0,.136-.545,1.059,1.059,0,0,0-.3-.772,1.007,1.007,0,0,0-.749-.31" transform="translate(-98.341 -126.594)" fill="#fff"/>
      <path id="Tracé_38" data-name="Tracé 38" d="M192.812,125.653h.343v.988h.542v.3h-.542V129.3h-.343v-2.366h-.467v-.3h.467Z" transform="translate(-102.473 -125.545)" fill="#fff"/>
      <path id="Tracé_39" data-name="Tracé 39" d="M198.967,129.469l.289.152a1.56,1.56,0,0,1-.328.45,1.313,1.313,0,0,1-.419.261,1.466,1.466,0,0,1-.527.089,1.272,1.272,0,0,1-1.019-.427,1.437,1.437,0,0,1-.367-.965,1.422,1.422,0,0,1,.311-.9,1.272,1.272,0,0,1,1.056-.5,1.314,1.314,0,0,1,1.087.516,1.446,1.446,0,0,1,.294.91h-2.4a1.082,1.082,0,0,0,.3.76.945.945,0,0,0,.708.3,1.138,1.138,0,0,0,.4-.071,1.039,1.039,0,0,0,.327-.187,1.584,1.584,0,0,0,.292-.378m0-.717a1.131,1.131,0,0,0-.2-.438.95.95,0,0,0-.346-.264,1.073,1.073,0,0,0-.454-.1.978.978,0,0,0-.674.252,1.145,1.145,0,0,0-.311.55Z" transform="translate(-104.738 -126.594)" fill="#fff"/>
      <path id="Tracé_40" data-name="Tracé 40" d="M206.517,127.689h.342v2.121a2.5,2.5,0,0,1-.1.819,1.065,1.065,0,0,1-.467.565,1.537,1.537,0,0,1-.8.2,1.845,1.845,0,0,1-.615-.1,1.234,1.234,0,0,1-.444-.26,1.543,1.543,0,0,1-.315-.477h.372a.972.972,0,0,0,.391.391,1.256,1.256,0,0,0,.595.128,1.239,1.239,0,0,0,.592-.13.808.808,0,0,0,.344-.328,1.468,1.468,0,0,0,.1-.638v-.137a1.3,1.3,0,0,1-.472.375,1.4,1.4,0,0,1-1.283-.051,1.3,1.3,0,0,1-.5-.491,1.343,1.343,0,0,1-.176-.678,1.385,1.385,0,0,1,1.376-1.38,1.274,1.274,0,0,1,.557.124,1.53,1.53,0,0,1,.5.407Zm-1.011.262a1.08,1.08,0,0,0-.54.141,1.021,1.021,0,0,0-.392.389,1.065,1.065,0,0,0-.142.537.966.966,0,0,0,.293.724,1.044,1.044,0,0,0,.76.286,1.033,1.033,0,0,0,.76-.284,1,1,0,0,0,.288-.746,1.081,1.081,0,0,0-.132-.537.963.963,0,0,0-.375-.373,1.041,1.041,0,0,0-.521-.137" transform="translate(-108.727 -126.594)" fill="#fff"/>
      <path id="Tracé_41" data-name="Tracé 41" d="M212.064,125.422a.283.283,0,1,1-.2.084.271.271,0,0,1,.2-.084m-.17,1.1h.342v2.661h-.342Z" transform="translate(-112.829 -125.422)" fill="#fff"/>
      <path id="Tracé_42" data-name="Tracé 42" d="M216.9,129.469l.289.152a1.561,1.561,0,0,1-.328.45,1.313,1.313,0,0,1-.419.261,1.466,1.466,0,0,1-.527.089,1.274,1.274,0,0,1-1.019-.427,1.439,1.439,0,0,1-.367-.965,1.422,1.422,0,0,1,.311-.9,1.272,1.272,0,0,1,1.056-.5,1.314,1.314,0,0,1,1.087.516,1.445,1.445,0,0,1,.294.91h-2.4a1.083,1.083,0,0,0,.3.76.947.947,0,0,0,.708.3,1.134,1.134,0,0,0,.4-.071,1.042,1.042,0,0,0,.327-.187,1.594,1.594,0,0,0,.292-.378m0-.717a1.13,1.13,0,0,0-.2-.438.951.951,0,0,0-.346-.264,1.069,1.069,0,0,0-.453-.1.978.978,0,0,0-.674.252,1.145,1.145,0,0,0-.311.55Z" transform="translate(-114.293 -126.594)" fill="#fff"/>
      <path id="Tracé_43" data-name="Tracé 43" d="M223.368,127.981l-.22.228a.793.793,0,0,0-.537-.267.407.407,0,0,0-.285.11.339.339,0,0,0-.119.257.377.377,0,0,0,.1.247,1.359,1.359,0,0,0,.412.282,1.522,1.522,0,0,1,.519.381.693.693,0,0,1,.135.418.752.752,0,0,1-.23.556.788.788,0,0,1-.576.228,1.012,1.012,0,0,1-.441-.1.945.945,0,0,1-.346-.277l.215-.244a.75.75,0,0,0,.556.3.5.5,0,0,0,.351-.132.407.407,0,0,0,.144-.31.4.4,0,0,0-.1-.262,1.534,1.534,0,0,0-.431-.284,1.389,1.389,0,0,1-.491-.367.692.692,0,0,1-.129-.414.672.672,0,0,1,.207-.5.722.722,0,0,1,.523-.2,1.084,1.084,0,0,1,.74.36" transform="translate(-118.153 -126.594)" fill="#fff"/>
    </g>
    <path id="Tracé_44" data-name="Tracé 44" d="M85.389,15.553l1.857-1.935,5.843,8.132h4.631l5.843-8.132,1.857,1.935v6.2h4.132V2.634h-4.132v7.731L95.405,0,85.389,10.364V2.634H81.257V21.751h4.132ZM95.405,5.274l5.309,5.469L95.405,18.31,90.1,10.742Z" transform="translate(21.598 33.01)" fill="#fff"/>
    <rect id="Rectangle_3" data-name="Rectangle 3" width="28.296" height="4.002" transform="translate(102.855 57.577)" fill="#fff"/>
    <path id="Tracé_45" data-name="Tracé 45" d="M111.264,21.149l-1.947-2-1.946,2,1.946,2.731Z" transform="translate(7.686 22.811)" fill="#fff"/>
  </g>
</svg>
