<svg xmlns="http://www.w3.org/2000/svg" width="225.185" height="135.694" viewBox="0 0 225.185 135.694">
  <g id="Groupe_1" data-name="Groupe 1" transform="translate(-308.192 -230.026)">
    <rect id="Rectangle_1" data-name="Rectangle 1" width="5.978" height="27.656" transform="translate(308.192 315.613)" fill="#1d1d1b"/>
    <path id="Tracé_1" data-name="Tracé 1" d="M324.954,343.269h-5.939V314.743l19.067,16.873V315.651h5.977v28.488l-19.1-16.609Z" fill="#1d1d1b"/>
    <path id="Tracé_2" data-name="Tracé 2" d="M359.615,338.426c3.292,0,5.107-1.513,5.107-3.064,0-2.194-2.95-2.762-6.166-3.329-3.481-.568-10.971-1.854-10.971-8.475,0-6.583,6.09-8.361,10.971-8.361a16.916,16.916,0,0,1,10.933,3.707l-3.329,4.541a13.885,13.885,0,0,0-7.831-2.838c-1.741,0-4.767.53-4.767,2.724,0,1.967,2.989,2.421,5.486,2.951,4.5.945,11.651,1.513,11.651,8.928,0,5.751-4.463,8.588-11.008,8.588a18.507,18.507,0,0,1-12.485-4.313l3.177-4.577a16.837,16.837,0,0,0,9.232,3.518" fill="#1d1d1b"/>
    <rect id="Rectangle_2" data-name="Rectangle 2" width="5.977" height="27.656" transform="translate(373.998 315.613)" fill="#1d1d1b"/>
    <path id="Tracé_3" data-name="Tracé 3" d="M412.7,330.1c0,.492-.037,1.021-.076,1.589-.6,7.074-7,12.106-14.451,12.106-8.21,0-14.907-6.431-14.907-14.338,0-7.869,6.7-14.339,14.907-14.339A15.114,15.114,0,0,1,410.7,321.78l-5.146,2.989a9.478,9.478,0,0,0-7.376-4.2,8.909,8.909,0,1,0,0,17.818c3.556,0,7.188-2.307,8.058-5.258H395.9v-5.259h16.721c.039.756.076,1.627.076,2.232" fill="#1d1d1b"/>
    <path id="Tracé_4" data-name="Tracé 4" d="M440.366,343.269h-5.94V332.525H421.449v10.744H415.51V315.613h5.939v11.728h12.977V315.613h5.94Z" fill="#1d1d1b"/>
    <path id="Tracé_5" data-name="Tracé 5" d="M456.563,320.8v22.473h-6.016V320.8H442.49v-5.183h22.093V320.8Z" fill="#1d1d1b"/>
    <path id="Tracé_6" data-name="Tracé 6" d="M487.935,314.743l15.171,28.526h-6.547l-2.193-4.237h-12.9l-2.119,4.237h-6.582Zm3.556,19.181-3.556-7.226-3.519,7.226Z" fill="#1d1d1b"/>
    <path id="Tracé_7" data-name="Tracé 7" d="M533.377,343.269h-6.016v-13.2l-8.474,9.837-8.475-9.837v13.2H504.4V314.743l14.489,16.344,14.49-16.344Z" fill="#1d1d1b"/>
    <path id="Tracé_8" data-name="Tracé 8" d="M308.192,356.543v-.754h4.219v.754h-1.717v6.947h-.785v-6.947Z" fill="#b1b1b1"/>
    <path id="Tracé_9" data-name="Tracé 9" d="M319.057,357.793v5.7h-.723v-.98a3.139,3.139,0,0,1-1.035.844,2.889,2.889,0,0,1-3.318-.6,2.937,2.937,0,0,1-.856-2.133,2.887,2.887,0,0,1,.863-2.1,2.815,2.815,0,0,1,2.079-.875,2.689,2.689,0,0,1,1.27.3,2.9,2.9,0,0,1,1,.895v-1.048Zm-2.93.561a2.21,2.21,0,0,0-1.953,1.145,2.312,2.312,0,0,0,0,2.3,2.234,2.234,0,0,0,.829.855,2.162,2.162,0,0,0,1.116.306,2.281,2.281,0,0,0,1.14-.3,2.1,2.1,0,0,0,.828-.821,2.333,2.333,0,0,0,.291-1.166,2.27,2.27,0,0,0-.651-1.652,2.157,2.157,0,0,0-1.6-.664" fill="#b1b1b1"/>
    <path id="Tracé_10" data-name="Tracé 10" d="M320.964,357.794h.75v.833a2.621,2.621,0,0,1,.707-.736,1.39,1.39,0,0,1,.773-.243,1.328,1.328,0,0,1,.65.194l-.381.618a1.021,1.021,0,0,0-.388-.1,1.062,1.062,0,0,0-.707.3,1.915,1.915,0,0,0-.519.935,8.975,8.975,0,0,0-.135,1.969v1.926h-.75Z" fill="#b1b1b1"/>
    <path id="Tracé_11" data-name="Tracé 11" d="M329.925,357.793h.733v4.54a5.34,5.34,0,0,1-.21,1.753,2.278,2.278,0,0,1-1,1.21,3.289,3.289,0,0,1-1.712.424,3.948,3.948,0,0,1-1.317-.207,2.631,2.631,0,0,1-.95-.557,3.285,3.285,0,0,1-.675-1.021h.795a2.09,2.09,0,0,0,.839.837,2.688,2.688,0,0,0,1.273.273,2.651,2.651,0,0,0,1.267-.279,1.729,1.729,0,0,0,.736-.7,3.143,3.143,0,0,0,.22-1.365v-.293a2.777,2.777,0,0,1-1.011.8,3,3,0,0,1-2.747-.109,2.774,2.774,0,0,1-1.069-1.05,2.875,2.875,0,0,1-.377-1.45,2.964,2.964,0,0,1,2.945-2.953,2.727,2.727,0,0,1,1.192.265,3.274,3.274,0,0,1,1.067.871Zm-2.163.561a2.311,2.311,0,0,0-1.156.3,2.184,2.184,0,0,0-.838.833,2.28,2.28,0,0,0-.3,1.149,2.067,2.067,0,0,0,.628,1.549,2.234,2.234,0,0,0,1.627.613,2.212,2.212,0,0,0,1.626-.608,2.143,2.143,0,0,0,.616-1.6,2.313,2.313,0,0,0-.283-1.149,2.06,2.06,0,0,0-.8-.8,2.228,2.228,0,0,0-1.115-.293" fill="#b1b1b1"/>
    <path id="Tracé_12" data-name="Tracé 12" d="M337.559,361.6l.618.325a3.34,3.34,0,0,1-.7.963,2.81,2.81,0,0,1-.9.558,3.138,3.138,0,0,1-1.127.191,2.726,2.726,0,0,1-2.181-.914,3.081,3.081,0,0,1-.786-2.065,3.044,3.044,0,0,1,.666-1.932,2.722,2.722,0,0,1,2.259-1.078,2.813,2.813,0,0,1,2.327,1.1,3.093,3.093,0,0,1,.629,1.948H333.24a2.319,2.319,0,0,0,.633,1.627,2.026,2.026,0,0,0,1.515.634,2.428,2.428,0,0,0,.847-.151,2.228,2.228,0,0,0,.7-.4,3.415,3.415,0,0,0,.624-.809m0-1.534a2.418,2.418,0,0,0-.428-.937,2.035,2.035,0,0,0-.741-.566,2.287,2.287,0,0,0-.97-.214,2.092,2.092,0,0,0-1.442.539,2.451,2.451,0,0,0-.665,1.178Z" fill="#b1b1b1"/>
    <path id="Tracé_13" data-name="Tracé 13" d="M340.907,355.679h.733v2.115H342.8v.633H341.64v5.063h-.733v-5.063h-1v-.633h1Z" fill="#b1b1b1"/>
    <path id="Tracé_14" data-name="Tracé 14" d="M344.691,355.448a.6.6,0,0,1,0,1.21.572.572,0,0,1-.422-.178.6.6,0,0,1,0-.853.573.573,0,0,1,.422-.179m-.363,2.346h.732v5.7h-.732Z" fill="#b1b1b1"/>
    <path id="Tracé_15" data-name="Tracé 15" d="M347.12,357.794h.734v1.021a3.019,3.019,0,0,1,.974-.876,2.385,2.385,0,0,1,1.161-.291,2.019,2.019,0,0,1,1.133.324,1.924,1.924,0,0,1,.73.874,4.605,4.605,0,0,1,.237,1.713v2.931h-.734v-2.717a6.634,6.634,0,0,0-.082-1.314,1.44,1.44,0,0,0-.488-.851,1.477,1.477,0,0,0-.942-.285,1.807,1.807,0,0,0-1.191.44,2.062,2.062,0,0,0-.7,1.089,7.668,7.668,0,0,0-.1,1.549v2.089h-.734Z" fill="#b1b1b1"/>
    <path id="Tracé_16" data-name="Tracé 16" d="M359.106,357.793h.733v4.54a5.34,5.34,0,0,1-.21,1.753,2.278,2.278,0,0,1-1,1.21,3.289,3.289,0,0,1-1.712.424,3.948,3.948,0,0,1-1.317-.207,2.623,2.623,0,0,1-.95-.557,3.286,3.286,0,0,1-.676-1.021h.8a2.09,2.09,0,0,0,.839.837,2.685,2.685,0,0,0,1.273.273,2.651,2.651,0,0,0,1.267-.279,1.72,1.72,0,0,0,.735-.7,3.125,3.125,0,0,0,.221-1.365v-.293a2.777,2.777,0,0,1-1.011.8,3,3,0,0,1-2.747-.109,2.774,2.774,0,0,1-1.069-1.05,2.875,2.875,0,0,1-.377-1.45,2.964,2.964,0,0,1,2.945-2.953,2.73,2.73,0,0,1,1.192.265,3.274,3.274,0,0,1,1.067.871Zm-2.163.561a2.315,2.315,0,0,0-1.157.3,2.189,2.189,0,0,0-.837.833,2.28,2.28,0,0,0-.3,1.149,2.067,2.067,0,0,0,.628,1.549,2.472,2.472,0,0,0,3.253.005,2.143,2.143,0,0,0,.616-1.6,2.324,2.324,0,0,0-.283-1.149,2.06,2.06,0,0,0-.8-.8,2.23,2.23,0,0,0-1.115-.293" fill="#b1b1b1"/>
    <path id="Tracé_17" data-name="Tracé 17" d="M368.313,358.417l-.472.487a1.694,1.694,0,0,0-1.149-.571.873.873,0,0,0-.612.236.729.729,0,0,0-.254.549.812.812,0,0,0,.21.529,2.92,2.92,0,0,0,.881.6,3.263,3.263,0,0,1,1.112.816,1.49,1.49,0,0,1,.289.895,1.611,1.611,0,0,1-.493,1.189,1.687,1.687,0,0,1-1.232.487,2.161,2.161,0,0,1-.942-.215,2.034,2.034,0,0,1-.741-.592l.461-.523a1.6,1.6,0,0,0,1.191.633,1.077,1.077,0,0,0,.751-.283.875.875,0,0,0,.309-.664.848.848,0,0,0-.205-.56,3.294,3.294,0,0,0-.924-.608,2.956,2.956,0,0,1-1.049-.785,1.481,1.481,0,0,1-.278-.885,1.436,1.436,0,0,1,.444-1.079,1.545,1.545,0,0,1,1.119-.429,2.322,2.322,0,0,1,1.584.77" fill="#b1b1b1"/>
    <path id="Tracé_18" data-name="Tracé 18" d="M370.786,355.679h.733v2.115h1.162v.633h-1.162v5.063h-.733v-5.063h-1v-.633h1Z" fill="#b1b1b1"/>
    <path id="Tracé_19" data-name="Tracé 19" d="M374.222,357.794h.732v2.66a5.721,5.721,0,0,0,.1,1.34,1.491,1.491,0,0,0,.6.827,1.817,1.817,0,0,0,1.057.3,1.791,1.791,0,0,0,1.041-.3,1.518,1.518,0,0,0,.589-.777,5.465,5.465,0,0,0,.11-1.4v-2.66h.748v2.8a4.43,4.43,0,0,1-.274,1.775,2.1,2.1,0,0,1-.827.934,2.615,2.615,0,0,1-1.385.338,2.646,2.646,0,0,1-1.39-.338,2.085,2.085,0,0,1-.833-.942,4.616,4.616,0,0,1-.274-1.82Z" fill="#b1b1b1"/>
    <path id="Tracé_20" data-name="Tracé 20" d="M387.056,355.6v7.895h-.723v-.98a3.136,3.136,0,0,1-1.034.844,2.889,2.889,0,0,1-3.318-.6,2.937,2.937,0,0,1-.856-2.133,2.887,2.887,0,0,1,.863-2.1,2.815,2.815,0,0,1,2.078-.875,2.689,2.689,0,0,1,1.27.3,2.873,2.873,0,0,1,1,.895V355.6Zm-2.929,2.759a2.216,2.216,0,0,0-1.954,1.145,2.313,2.313,0,0,0,0,2.3,2.256,2.256,0,0,0,.829.855,2.166,2.166,0,0,0,1.117.306,2.284,2.284,0,0,0,1.14-.3,2.1,2.1,0,0,0,.828-.821,2.332,2.332,0,0,0,.29-1.166,2.265,2.265,0,0,0-.65-1.652,2.157,2.157,0,0,0-1.6-.664" fill="#b1b1b1"/>
    <path id="Tracé_21" data-name="Tracé 21" d="M389.505,355.448a.6.6,0,0,1,0,1.21.572.572,0,0,1-.422-.178.6.6,0,0,1,0-.853.573.573,0,0,1,.422-.179m-.363,2.346h.732v5.7h-.732Z" fill="#b1b1b1"/>
    <path id="Tracé_22" data-name="Tracé 22" d="M396.729,361.6l.618.325a3.34,3.34,0,0,1-.7.963,2.817,2.817,0,0,1-.895.558,3.143,3.143,0,0,1-1.128.191,2.724,2.724,0,0,1-2.18-.914,3.081,3.081,0,0,1-.786-2.065,3.043,3.043,0,0,1,.665-1.932,2.723,2.723,0,0,1,2.26-1.078,2.811,2.811,0,0,1,2.326,1.1,3.088,3.088,0,0,1,.629,1.948H392.41a2.319,2.319,0,0,0,.634,1.627,2.025,2.025,0,0,0,1.515.634,2.436,2.436,0,0,0,.847-.151,2.223,2.223,0,0,0,.7-.4,3.389,3.389,0,0,0,.624-.809m0-1.534a2.4,2.4,0,0,0-.428-.937,2.031,2.031,0,0,0-.74-.566,2.3,2.3,0,0,0-.971-.214,2.09,2.09,0,0,0-1.441.539,2.443,2.443,0,0,0-.666,1.178Z" fill="#b1b1b1"/>
    <path id="Tracé_23" data-name="Tracé 23" d="M402.3,358.417l-.472.487a1.694,1.694,0,0,0-1.149-.571.87.87,0,0,0-.611.236.726.726,0,0,0-.255.549.808.808,0,0,0,.211.529,2.9,2.9,0,0,0,.88.6,3.253,3.253,0,0,1,1.112.816,1.484,1.484,0,0,1,.289.895,1.614,1.614,0,0,1-.492,1.189,1.687,1.687,0,0,1-1.232.487,2.165,2.165,0,0,1-.943-.215,2.022,2.022,0,0,1-.74-.592l.46-.523a1.6,1.6,0,0,0,1.191.633,1.077,1.077,0,0,0,.751-.283.871.871,0,0,0,.309-.664.848.848,0,0,0-.2-.56,3.285,3.285,0,0,0-.923-.608,2.961,2.961,0,0,1-1.05-.785,1.48,1.48,0,0,1-.277-.885,1.439,1.439,0,0,1,.443-1.079,1.546,1.546,0,0,1,1.119-.429,2.32,2.32,0,0,1,1.584.77" fill="#b1b1b1"/>
    <path id="Tracé_24" data-name="Tracé 24" d="M413.588,360.643l.521.552a11.779,11.779,0,0,1-.954.768q.315.289.821.794c.265.266.494.508.686.733h-1.074l-1.021-1.053A6.667,6.667,0,0,1,411,363.449a3.477,3.477,0,0,1-1.272.234,1.992,1.992,0,0,1-1.43-.51,1.682,1.682,0,0,1-.539-1.275,2.151,2.151,0,0,1,.364-1.155,6.767,6.767,0,0,1,1.483-1.464,7.01,7.01,0,0,1-.813-1.127,1.554,1.554,0,0,1-.181-.694,1.2,1.2,0,0,1,.445-.952,1.9,1.9,0,0,1,1.277-.44,1.983,1.983,0,0,1,.88.194,1.433,1.433,0,0,1,.607.521,1.264,1.264,0,0,1,.21.694,1.567,1.567,0,0,1-.272.824,5.578,5.578,0,0,1-1.075,1.119l1.168,1.225.764.775a11.722,11.722,0,0,0,.97-.775m-3.472-.783a6.315,6.315,0,0,0-1.286,1.176,1.456,1.456,0,0,0-.3.81,1.025,1.025,0,0,0,.373.777,1.3,1.3,0,0,0,.913.339,2.025,2.025,0,0,0,.8-.168,6.517,6.517,0,0,0,1.419-.908l-1.214-1.251c-.21-.22-.443-.478-.7-.775m.094-1.019a3.83,3.83,0,0,0,.844-.853.984.984,0,0,0,.2-.529.563.563,0,0,0-.26-.461,1.126,1.126,0,0,0-.689-.194,1.07,1.07,0,0,0-.668.2.588.588,0,0,0-.258.472.765.765,0,0,0,.107.392,6.041,6.041,0,0,0,.725.974" fill="#b1b1b1"/>
    <path id="Tracé_25" data-name="Tracé 25" d="M419.566,363.49l1.1-7.7h.124l3.131,6.319,3.1-6.319h.125l1.107,7.7H427.5l-.762-5.507-2.722,5.507h-.2l-2.755-5.549-.757,5.549Z" fill="#b1b1b1"/>
    <path id="Tracé_26" data-name="Tracé 26" d="M435.861,357.793v5.7h-.723v-.98a3.139,3.139,0,0,1-1.035.844,2.889,2.889,0,0,1-3.318-.6,2.94,2.94,0,0,1-.855-2.133,2.886,2.886,0,0,1,.862-2.1,2.816,2.816,0,0,1,2.079-.875,2.689,2.689,0,0,1,1.27.3,2.891,2.891,0,0,1,1,.895v-1.048Zm-2.93.561a2.211,2.211,0,0,0-1.13.3,2.188,2.188,0,0,0-.822.844,2.309,2.309,0,0,0,0,2.3,2.242,2.242,0,0,0,.829.855,2.163,2.163,0,0,0,1.116.306,2.281,2.281,0,0,0,1.14-.3,2.1,2.1,0,0,0,.828-.821,2.333,2.333,0,0,0,.292-1.166,2.267,2.267,0,0,0-.652-1.652,2.155,2.155,0,0,0-1.6-.664" fill="#b1b1b1"/>
    <path id="Tracé_27" data-name="Tracé 27" d="M437.767,357.794h.75v.833a2.632,2.632,0,0,1,.706-.736,1.4,1.4,0,0,1,.774-.243,1.328,1.328,0,0,1,.65.194l-.382.618a1.021,1.021,0,0,0-.387-.1,1.06,1.06,0,0,0-.707.3,1.915,1.915,0,0,0-.519.935,8.975,8.975,0,0,0-.135,1.969v1.926h-.75Z" fill="#b1b1b1"/>
    <path id="Tracé_28" data-name="Tracé 28" d="M441.8,355.6h.732v4.5l2.642-2.3h1.076l-3.131,2.718,3.315,2.979H445.4l-2.87-2.565v2.565H441.8Z" fill="#b1b1b1"/>
    <path id="Tracé_29" data-name="Tracé 29" d="M452.519,361.6l.618.325a3.34,3.34,0,0,1-.7.963,2.81,2.81,0,0,1-.9.558,3.138,3.138,0,0,1-1.127.191,2.726,2.726,0,0,1-2.181-.914,3.081,3.081,0,0,1-.786-2.065,3.044,3.044,0,0,1,.666-1.932,2.722,2.722,0,0,1,2.259-1.078,2.813,2.813,0,0,1,2.327,1.1,3.093,3.093,0,0,1,.629,1.948H448.2a2.318,2.318,0,0,0,.633,1.627,2.026,2.026,0,0,0,1.515.634,2.432,2.432,0,0,0,.847-.151,2.228,2.228,0,0,0,.7-.4,3.415,3.415,0,0,0,.624-.809m0-1.534a2.419,2.419,0,0,0-.428-.937,2.035,2.035,0,0,0-.741-.566,2.287,2.287,0,0,0-.97-.214,2.092,2.092,0,0,0-1.442.539,2.45,2.45,0,0,0-.665,1.178Z" fill="#b1b1b1"/>
    <path id="Tracé_30" data-name="Tracé 30" d="M455.867,355.679h.733v2.115h1.162v.633H456.6v5.063h-.733v-5.063h-1v-.633h1Z" fill="#b1b1b1"/>
    <path id="Tracé_31" data-name="Tracé 31" d="M459.651,355.448a.6.6,0,0,1,0,1.21.572.572,0,0,1-.422-.178.6.6,0,0,1,0-.853.573.573,0,0,1,.422-.179m-.363,2.346h.732v5.7h-.732Z" fill="#b1b1b1"/>
    <path id="Tracé_32" data-name="Tracé 32" d="M462.08,357.794h.734v1.021a3.019,3.019,0,0,1,.974-.876,2.385,2.385,0,0,1,1.161-.291,2.019,2.019,0,0,1,1.133.324,1.924,1.924,0,0,1,.73.874,4.606,4.606,0,0,1,.237,1.713v2.931h-.734v-2.717a6.634,6.634,0,0,0-.082-1.314,1.44,1.44,0,0,0-.488-.851,1.477,1.477,0,0,0-.942-.285,1.807,1.807,0,0,0-1.191.44,2.062,2.062,0,0,0-.7,1.089,7.668,7.668,0,0,0-.1,1.549v2.089h-.734Z" fill="#b1b1b1"/>
    <path id="Tracé_33" data-name="Tracé 33" d="M474.066,357.793h.733v4.54a5.34,5.34,0,0,1-.21,1.753,2.278,2.278,0,0,1-1,1.21,3.29,3.29,0,0,1-1.713.424,3.946,3.946,0,0,1-1.316-.207,2.623,2.623,0,0,1-.95-.557,3.286,3.286,0,0,1-.676-1.021h.8a2.09,2.09,0,0,0,.839.837,2.685,2.685,0,0,0,1.273.273,2.651,2.651,0,0,0,1.267-.279,1.72,1.72,0,0,0,.735-.7,3.125,3.125,0,0,0,.221-1.365v-.293a2.777,2.777,0,0,1-1.011.8,3,3,0,0,1-2.747-.109,2.774,2.774,0,0,1-1.069-1.05,2.875,2.875,0,0,1-.377-1.45,2.964,2.964,0,0,1,2.945-2.953,2.73,2.73,0,0,1,1.192.265,3.274,3.274,0,0,1,1.067.871Zm-2.163.561a2.315,2.315,0,0,0-1.157.3,2.189,2.189,0,0,0-.837.833,2.28,2.28,0,0,0-.3,1.149,2.067,2.067,0,0,0,.628,1.549,2.472,2.472,0,0,0,3.253.005,2.143,2.143,0,0,0,.616-1.6,2.324,2.324,0,0,0-.283-1.149,2.06,2.06,0,0,0-.8-.8,2.23,2.23,0,0,0-1.115-.293" fill="#b1b1b1"/>
    <path id="Tracé_34" data-name="Tracé 34" d="M483.273,358.417l-.472.487a1.694,1.694,0,0,0-1.149-.571.873.873,0,0,0-.612.236.728.728,0,0,0-.254.549.812.812,0,0,0,.21.529,2.92,2.92,0,0,0,.881.6,3.264,3.264,0,0,1,1.112.816,1.491,1.491,0,0,1,.289.895,1.611,1.611,0,0,1-.493,1.189,1.687,1.687,0,0,1-1.232.487,2.161,2.161,0,0,1-.942-.215,2.034,2.034,0,0,1-.741-.592l.461-.523a1.6,1.6,0,0,0,1.191.633,1.077,1.077,0,0,0,.751-.283.875.875,0,0,0,.309-.664.848.848,0,0,0-.2-.56,3.294,3.294,0,0,0-.924-.608,2.956,2.956,0,0,1-1.049-.785,1.481,1.481,0,0,1-.278-.885,1.436,1.436,0,0,1,.444-1.079,1.545,1.545,0,0,1,1.119-.429,2.322,2.322,0,0,1,1.584.77" fill="#b1b1b1"/>
    <path id="Tracé_35" data-name="Tracé 35" d="M485.746,355.679h.733v2.115h1.162v.633h-1.162v5.063h-.733v-5.063h-1v-.633h1Z" fill="#b1b1b1"/>
    <path id="Tracé_36" data-name="Tracé 36" d="M489,357.794h.75v.833a2.621,2.621,0,0,1,.707-.736,1.39,1.39,0,0,1,.773-.243,1.328,1.328,0,0,1,.65.194l-.381.618a1.021,1.021,0,0,0-.388-.1,1.062,1.062,0,0,0-.707.3,1.915,1.915,0,0,0-.519.935,9.041,9.041,0,0,0-.135,1.969v1.926H489Z" fill="#b1b1b1"/>
    <path id="Tracé_37" data-name="Tracé 37" d="M498.713,357.793v5.7h-.723v-.98a3.138,3.138,0,0,1-1.035.844,2.889,2.889,0,0,1-3.318-.6,2.94,2.94,0,0,1-.855-2.133,2.886,2.886,0,0,1,.862-2.1,2.815,2.815,0,0,1,2.079-.875,2.689,2.689,0,0,1,1.27.3,2.891,2.891,0,0,1,1,.895v-1.048Zm-2.93.561a2.211,2.211,0,0,0-1.13.3,2.188,2.188,0,0,0-.822.844,2.309,2.309,0,0,0,0,2.3,2.235,2.235,0,0,0,.829.855,2.163,2.163,0,0,0,1.116.306,2.281,2.281,0,0,0,1.14-.3,2.1,2.1,0,0,0,.828-.821,2.333,2.333,0,0,0,.291-1.166,2.266,2.266,0,0,0-.651-1.652,2.155,2.155,0,0,0-1.6-.664" fill="#b1b1b1"/>
    <path id="Tracé_38" data-name="Tracé 38" d="M501.536,355.679h.734v2.115h1.161v.633H502.27v5.063h-.734v-5.063h-1v-.633h1Z" fill="#b1b1b1"/>
    <path id="Tracé_39" data-name="Tracé 39" d="M509.863,361.6l.618.325a3.34,3.34,0,0,1-.7.963,2.81,2.81,0,0,1-.9.558,3.138,3.138,0,0,1-1.127.191,2.724,2.724,0,0,1-2.18-.914,3.076,3.076,0,0,1-.786-2.065,3.043,3.043,0,0,1,.665-1.932,2.723,2.723,0,0,1,2.26-1.078,2.811,2.811,0,0,1,2.326,1.1,3.093,3.093,0,0,1,.629,1.948h-5.126a2.315,2.315,0,0,0,.634,1.627,2.023,2.023,0,0,0,1.515.634,2.436,2.436,0,0,0,.847-.151,2.223,2.223,0,0,0,.7-.4,3.389,3.389,0,0,0,.624-.809m0-1.534a2.418,2.418,0,0,0-.428-.937,2.031,2.031,0,0,0-.74-.566,2.3,2.3,0,0,0-.971-.214,2.094,2.094,0,0,0-1.442.539,2.45,2.45,0,0,0-.665,1.178Z" fill="#b1b1b1"/>
    <path id="Tracé_40" data-name="Tracé 40" d="M517.482,357.793h.733v4.54a5.34,5.34,0,0,1-.21,1.753,2.278,2.278,0,0,1-1,1.21,3.289,3.289,0,0,1-1.712.424,3.948,3.948,0,0,1-1.317-.207,2.64,2.64,0,0,1-.95-.557,3.3,3.3,0,0,1-.675-1.021h.8a2.082,2.082,0,0,0,.838.837,2.688,2.688,0,0,0,1.273.273,2.651,2.651,0,0,0,1.267-.279,1.729,1.729,0,0,0,.736-.7,3.143,3.143,0,0,0,.22-1.365v-.293a2.777,2.777,0,0,1-1.011.8,3,3,0,0,1-2.747-.109,2.774,2.774,0,0,1-1.069-1.05,2.874,2.874,0,0,1-.377-1.45,2.964,2.964,0,0,1,2.945-2.953,2.726,2.726,0,0,1,1.192.265,3.274,3.274,0,0,1,1.067.871Zm-2.163.561a2.311,2.311,0,0,0-1.156.3,2.184,2.184,0,0,0-.838.833,2.279,2.279,0,0,0-.3,1.149,2.067,2.067,0,0,0,.628,1.549,2.472,2.472,0,0,0,3.253.005,2.143,2.143,0,0,0,.616-1.6,2.313,2.313,0,0,0-.283-1.149,2.06,2.06,0,0,0-.8-.8,2.228,2.228,0,0,0-1.115-.293" fill="#b1b1b1"/>
    <path id="Tracé_41" data-name="Tracé 41" d="M520.575,355.448a.606.606,0,1,1-.422.179.579.579,0,0,1,.422-.179m-.364,2.346h.732v5.7h-.732Z" fill="#b1b1b1"/>
    <path id="Tracé_42" data-name="Tracé 42" d="M527.8,361.6l.618.325a3.341,3.341,0,0,1-.7.963,2.811,2.811,0,0,1-.9.558,3.138,3.138,0,0,1-1.127.191,2.725,2.725,0,0,1-2.181-.914,3.081,3.081,0,0,1-.786-2.065,3.044,3.044,0,0,1,.666-1.932,2.722,2.722,0,0,1,2.259-1.078,2.813,2.813,0,0,1,2.327,1.1,3.093,3.093,0,0,1,.629,1.948h-5.126a2.318,2.318,0,0,0,.633,1.627,2.027,2.027,0,0,0,1.516.634,2.427,2.427,0,0,0,.846-.151,2.229,2.229,0,0,0,.7-.4,3.416,3.416,0,0,0,.624-.809m0-1.534a2.418,2.418,0,0,0-.428-.937,2.035,2.035,0,0,0-.741-.566,2.287,2.287,0,0,0-.97-.214,2.092,2.092,0,0,0-1.442.539,2.45,2.45,0,0,0-.665,1.178Z" fill="#b1b1b1"/>
    <path id="Tracé_43" data-name="Tracé 43" d="M533.372,358.417l-.471.487a1.7,1.7,0,0,0-1.15-.571.87.87,0,0,0-.611.236.726.726,0,0,0-.255.549.808.808,0,0,0,.211.529,2.907,2.907,0,0,0,.881.6,3.257,3.257,0,0,1,1.111.816,1.484,1.484,0,0,1,.289.895,1.61,1.61,0,0,1-.492,1.189,1.687,1.687,0,0,1-1.232.487,2.165,2.165,0,0,1-.943-.215,2.023,2.023,0,0,1-.74-.592l.46-.523a1.6,1.6,0,0,0,1.191.633,1.077,1.077,0,0,0,.751-.283.871.871,0,0,0,.309-.664.848.848,0,0,0-.205-.56,3.285,3.285,0,0,0-.923-.608,2.971,2.971,0,0,1-1.05-.785,1.48,1.48,0,0,1-.277-.885,1.439,1.439,0,0,1,.443-1.079,1.546,1.546,0,0,1,1.119-.429,2.32,2.32,0,0,1,1.584.77" fill="#b1b1b1"/>
    <path id="Tracé_44" data-name="Tracé 44" d="M398.292,263.313l3.975-4.141,12.506,17.4h9.912l12.506-17.4,3.975,4.141v13.264h8.843V235.663h-8.843v16.545l-21.437-22.182-21.437,22.182V235.663h-8.843v40.914h8.843Zm21.437-22,11.362,11.7-11.362,16.2-11.362-16.2Z" fill="#243063"/>
    <rect id="Rectangle_3" data-name="Rectangle 3" width="60.56" height="8.566" transform="translate(389.449 282.603)" fill="#243063"/>
    <path id="Tracé_45" data-name="Tracé 45" d="M423.894,253.461l-4.166-4.291-4.165,4.291,4.165,5.845Z" fill="#243063"/>
  </g>
</svg>
