<svg xmlns="http://www.w3.org/2000/svg" xmlns:xlink="http://www.w3.org/1999/xlink" width="50" height="50" viewBox="0 0 50 50">
  <defs>
    <filter id="Linkedin" x="6.964" y="9.325" width="36.073" height="36.073" filterUnits="userSpaceOnUse">
      <feOffset dy="3" input="SourceAlpha"/>
      <feGaussianBlur stdDeviation="3" result="blur"/>
      <feFlood flood-opacity="0.161"/>
      <feComposite operator="in" in2="blur"/>
      <feComposite in="SourceGraphic"/>
    </filter>
  </defs>
  <g id="Linkedin-2" data-name="Linkedin" transform="translate(-248.899 -6937.01)">
    <path id="Oval" d="M25,0A25,25,0,1,1,0,25,25,25,0,0,1,25,0Z" transform="translate(248.899 6937.01)" fill="#1d1d1b"/>
    <g transform="matrix(1, 0, 0, 1, 248.9, 6937.01)" filter="url(#Linkedin)">
      <path id="Linkedin-3" data-name="Linkedin" d="M14.332,18.073V12.2c0-1.4-.021-3.2-1.944-3.2-1.951,0-2.243,1.528-2.243,3.1v5.973H6.4V6H9.984V7.655h.049a3.935,3.935,0,0,1,3.546-1.947c3.791,0,4.494,2.5,4.494,5.75v6.615Zm-10.292,0H.293V6H4.041V18.073h0ZM6.4,6H6.4ZM0,2.177A2.174,2.174,0,1,1,2.174,4.354,2.178,2.178,0,0,1,0,2.177Z" transform="translate(15.96 15.32)" fill="#fff"/>
    </g>
  </g>
</svg>
